<?xml version="1.0" encoding="UTF-8"?>
<svg id="Layer_1" data-name="Layer 1" xmlns="http://www.w3.org/2000/svg" viewBox="0 0 400 108.73">
  <defs>
    <style>
      .cls-1 {
        fill: #e64c7c;
      }

      .cls-2 {
        fill: #fff;
        font-family: FunnelDisplay-SemiBold, 'Funnel Display';
        font-size: 46.82px;
        font-variation-settings: 'wght' 600;
        font-weight: 600;
      }

      .cls-3 {
        letter-spacing: -.02em;
      }
    </style>
  </defs>
  <g>
    <path class="cls-1" d="M59.73,95.57c-1.82,0-3.3-1.48-3.3-3.3V16.46c0-1.82,1.48-3.3,3.3-3.3s3.3,1.48,3.3,3.3v75.81c0,1.82-1.48,3.3-3.3,3.3Z"/>
    <path class="cls-1" d="M70.26,85.45c-1.82,0-3.3-1.48-3.3-3.3v-47.36c0-1.82,1.48-3.3,3.3-3.3s3.3,1.48,3.3,3.3v47.36c0,1.82-1.48,3.3-3.3,3.3Z"/>
    <path class="cls-1" d="M79.97,78.97c-1.82,0-3.3-1.48-3.3-3.3v-37.68c0-1.82,1.48-3.3,3.3-3.3s3.3,1.48,3.3,3.3v37.68c0,1.82-1.48,3.3-3.3,3.3Z"/>
    <path class="cls-1" d="M89.69,70.78c-1.82,0-3.3-1.48-3.3-3.3v-14.67c0-1.82,1.48-3.3,3.3-3.3s3.3,1.48,3.3,3.3v14.67c0,1.82-1.48,3.3-3.3,3.3Z"/>
    <path class="cls-1" d="M99.51,61.05c-1.82,0-3.3-1.48-3.3-3.3v-6.62c0-1.82,1.48-3.3,3.3-3.3s3.3,1.48,3.3,3.3v6.62c0,1.82-1.48,3.3-3.3,3.3Z"/>
    <path class="cls-1" d="M108.32,58.46c-.22,0-.43-.02-.64-.07-.21-.04-.42-.1-.62-.19-.2-.09-.39-.19-.57-.31-.18-.12-.35-.26-.5-.41-.15-.16-.29-.32-.41-.5-.12-.18-.22-.37-.3-.57-.08-.2-.15-.41-.19-.62-.04-.21-.06-.43-.06-.64s.02-.43.06-.64c.04-.21.11-.42.19-.62.08-.2.19-.39.3-.57.12-.18.26-.35.41-.5.15-.15.32-.29.5-.41.18-.12.37-.22.57-.3.2-.08.41-.15.62-.19.42-.09.86-.09,1.29,0,.21.04.42.11.62.19.2.08.39.18.57.3.18.12.35.26.5.41.15.15.29.32.41.5.12.18.22.37.31.57.08.2.14.4.19.62.04.21.07.43.07.64s-.02.43-.07.64c-.04.21-.1.41-.19.62-.09.2-.19.39-.31.57-.12.18-.26.35-.41.5-.15.15-.32.29-.5.41-.18.12-.37.22-.57.31-.2.08-.41.14-.62.19-.21.04-.43.07-.64.07Z"/>
    <path class="cls-1" d="M89.69,47.44c-.22,0-.43-.02-.64-.06-.21-.04-.42-.11-.62-.19-.2-.08-.39-.19-.57-.3-.18-.12-.35-.26-.5-.41-.62-.61-.97-1.46-.97-2.33,0-.21.02-.43.06-.64.04-.21.11-.42.19-.62.08-.2.18-.39.3-.57s.26-.35.41-.5c.15-.15.32-.29.5-.41.18-.12.37-.22.57-.31.2-.08.4-.14.62-.19.42-.09.86-.09,1.29,0,.21.04.42.1.62.19.2.09.39.19.57.31.18.12.35.26.5.41.15.15.29.32.41.5.12.18.22.37.3.57.08.2.14.41.19.62.04.21.07.43.07.64,0,.87-.35,1.72-.97,2.33-.15.15-.32.29-.5.41-.18.12-.37.22-.57.3-.2.08-.41.15-.62.19-.21.04-.43.06-.64.06Z"/>
    <path class="cls-1" d="M79.97,41.28c-.21,0-.43-.02-.64-.06-.21-.04-.42-.11-.62-.19-.2-.08-.39-.18-.57-.3-.18-.12-.35-.26-.5-.41-.15-.15-.29-.32-.41-.5-.12-.18-.22-.37-.3-.57-.09-.2-.15-.4-.19-.62-.04-.21-.06-.43-.06-.64s.02-.43.06-.64c.04-.21.1-.42.19-.62.08-.2.18-.39.3-.57.12-.18.26-.35.41-.5.16-.15.32-.29.5-.41.18-.12.37-.22.57-.31.2-.08.41-.14.62-.19.43-.09.87-.09,1.29,0,.21.04.42.1.62.19.2.09.39.19.57.31.18.12.35.26.5.41.62.61.97,1.47.97,2.33,0,.22-.02.43-.07.64-.04.21-.1.42-.19.62-.08.2-.18.39-.3.57-.12.18-.26.35-.41.5-.61.62-1.46.97-2.33.97Z"/>
    <path class="cls-1" d="M70.26,29.24c-.21,0-.43-.02-.64-.07-.21-.04-.42-.1-.62-.19-.2-.08-.39-.19-.57-.3-.18-.12-.35-.26-.5-.41-.15-.15-.29-.32-.41-.5-.12-.18-.22-.37-.3-.57-.08-.2-.14-.41-.19-.62-.04-.21-.07-.43-.07-.64s.02-.43.07-.64c.04-.21.1-.42.19-.62.08-.2.19-.39.3-.57.12-.18.26-.35.41-.5.15-.15.32-.29.5-.41.18-.12.37-.22.57-.3.2-.08.41-.14.62-.19.43-.09.87-.09,1.29,0,.21.04.42.1.62.19.2.08.39.19.57.3.18.12.35.26.5.41.15.15.29.32.41.5.12.18.22.37.3.57.08.2.15.41.19.62.04.21.06.43.06.64s-.02.43-.06.64c-.04.21-.11.42-.19.62-.08.2-.19.39-.3.57-.12.18-.26.35-.41.5-.15.15-.32.29-.5.41-.18.12-.37.22-.57.3-.2.08-.41.15-.62.19-.21.05-.43.07-.64.07Z"/>
    <path class="cls-1" d="M48.87,77c-1.82,0-3.3-1.48-3.3-3.3V26.34c0-1.82,1.48-3.3,3.3-3.3s3.3,1.48,3.3,3.3v47.36c0,1.82-1.48,3.3-3.3,3.3Z"/>
    <path class="cls-1" d="M39.15,73.8c-1.82,0-3.3-1.48-3.3-3.3v-29.49c0-1.82,1.48-3.3,3.3-3.3s3.3,1.48,3.3,3.3v29.49c0,1.82-1.48,3.3-3.3,3.3Z"/>
    <path class="cls-1" d="M29.43,67.65c-1.82,0-3.3-1.48-3.3-3.3v-23.34c0-1.82,1.48-3.3,3.3-3.3s3.3,1.48,3.3,3.3v23.34c0,1.82-1.48,3.3-3.3,3.3Z"/>
    <path class="cls-1" d="M19.61,60.65c-1.82,0-3.3-1.48-3.3-3.3v-6.62c0-1.82,1.48-3.3,3.3-3.3s3.3,1.48,3.3,3.3v6.62c0,1.82-1.48,3.3-3.3,3.3Z"/>
    <path class="cls-1" d="M10.81,56.62c-.21,0-.43-.02-.64-.06-.21-.04-.42-.11-.62-.19-.2-.08-.39-.18-.57-.3-.18-.12-.35-.26-.5-.41-.15-.15-.29-.32-.41-.5-.12-.18-.22-.37-.3-.57-.09-.2-.15-.41-.19-.62-.04-.21-.07-.43-.07-.64s.02-.43.07-.64c.04-.21.1-.42.19-.62.08-.2.18-.39.3-.57s.26-.35.41-.5c.16-.15.32-.29.5-.41.18-.12.37-.22.57-.3.2-.08.41-.14.62-.19,1.07-.22,2.21.14,2.98.9.15.15.29.32.41.5s.22.37.3.57c.09.2.15.41.19.62.04.21.06.43.06.64s-.02.43-.06.64c-.04.21-.1.42-.19.62-.08.2-.18.39-.3.57-.12.18-.26.35-.41.5-.62.61-1.47.97-2.34.97Z"/>
    <path class="cls-1" d="M29.43,67.65c-.21,0-.43-.02-.64-.07-.21-.04-.42-.1-.62-.19-.2-.09-.39-.19-.57-.31-.18-.12-.35-.26-.5-.41-.16-.15-.29-.32-.41-.5s-.22-.37-.3-.57-.15-.41-.19-.62c-.04-.21-.06-.43-.06-.64s.02-.43.06-.64c.04-.21.11-.42.19-.62.08-.2.18-.39.3-.57.12-.18.26-.35.41-.5.15-.16.32-.29.5-.41.18-.12.37-.22.57-.3.2-.08.41-.15.62-.19.43-.09.87-.09,1.29,0,.21.04.42.11.62.19.2.08.39.18.57.3.18.12.35.26.5.41.15.15.29.32.41.5.12.18.22.37.3.57.09.2.15.41.19.62s.07.43.07.64-.02.43-.07.64c-.04.21-.1.42-.19.62-.08.2-.18.39-.3.57s-.26.35-.41.5c-.16.15-.32.29-.5.41-.18.12-.37.22-.57.31-.2.08-.41.14-.62.19-.21.04-.43.07-.65.07Z"/>
    <path class="cls-1" d="M39.15,36.12c-.22,0-.43-.02-.64-.07-.21-.04-.42-.1-.62-.19-.2-.09-.39-.19-.57-.31-.18-.12-.35-.26-.5-.41-.15-.15-.29-.32-.41-.5-.12-.18-.22-.37-.3-.57-.08-.2-.14-.41-.19-.62-.04-.21-.07-.43-.07-.64s.02-.43.07-.65c.04-.21.1-.42.19-.62.08-.2.19-.39.3-.57.12-.18.26-.35.41-.5.15-.16.32-.29.5-.41.18-.12.37-.22.57-.3.2-.09.41-.15.62-.19.42-.09.86-.09,1.29,0,.21.04.42.1.62.19.2.08.39.18.57.3.18.12.35.26.5.41.15.15.29.32.41.5.12.18.22.37.3.57.08.2.14.41.19.62.04.21.07.43.07.65s-.02.43-.07.64c-.04.21-.1.41-.19.62-.08.2-.19.39-.3.57-.12.18-.26.35-.41.5-.15.15-.32.29-.5.41-.18.12-.37.22-.57.31-.2.08-.41.14-.62.19-.21.04-.43.07-.64.07Z"/>
    <path class="cls-1" d="M48.87,85.85c-.21,0-.43-.02-.64-.07-.21-.04-.42-.1-.62-.19-.2-.09-.39-.19-.57-.3-.18-.12-.35-.26-.5-.41-.15-.15-.29-.32-.41-.5s-.22-.37-.31-.57c-.08-.2-.14-.41-.19-.62-.04-.21-.07-.43-.07-.64s.02-.43.07-.64c.04-.21.1-.42.19-.62.09-.2.19-.39.3-.57.12-.18.26-.35.41-.5.77-.77,1.91-1.12,2.98-.9.21.04.42.11.62.19.2.08.39.18.57.3.18.12.35.26.5.41.15.15.29.32.41.5.12.18.22.37.3.57.08.2.15.4.19.62.04.21.06.43.06.64s-.02.43-.06.64c-.04.21-.11.42-.19.62-.08.2-.18.39-.3.57s-.26.35-.41.5c-.61.61-1.46.97-2.33.97Z"/>
  </g>
  <text class="cls-2" transform="translate(133.92 66.57)"><tspan x="0" y="0">J</tspan><tspan class="cls-3" x="17.99" y="0">a</tspan><tspan x="44.56" y="0">mmming</tspan></text>
</svg>