<?xml version="1.0" encoding="UTF-8"?>
<svg id="Layer_1" data-name="Layer 1" xmlns="http://www.w3.org/2000/svg" viewBox="0 0 106.52 108.73">
  <defs>
    <style>
      .cls-1 {
        fill: #e64c7c;
      }

      .cls-2 {
        fill: #3d1f41;
      }
    </style>
  </defs>
  <circle class="cls-2" cx="53.37" cy="54.37" r="52.67"/>
  <g>
    <path class="cls-1" d="M53.51,88.56c-1.51,0-2.74-1.23-2.74-2.74V22.91c0-1.51,1.23-2.74,2.74-2.74s2.74,1.23,2.74,2.74v62.9c0,1.51-1.23,2.74-2.74,2.74Z"/>
    <path class="cls-1" d="M62.25,80.16c-1.51,0-2.74-1.23-2.74-2.74v-39.29c0-1.51,1.23-2.74,2.74-2.74s2.74,1.23,2.74,2.74v39.29c0,1.51-1.23,2.74-2.74,2.74Z"/>
    <path class="cls-1" d="M70.31,74.78c-1.51,0-2.74-1.23-2.74-2.74v-31.27c0-1.51,1.23-2.74,2.74-2.74s2.74,1.23,2.74,2.74v31.27c0,1.51-1.23,2.74-2.74,2.74Z"/>
    <path class="cls-1" d="M78.37,67.99c-1.51,0-2.74-1.23-2.74-2.74v-12.17c0-1.51,1.23-2.74,2.74-2.74s2.74,1.23,2.74,2.74v12.17c0,1.51-1.23,2.74-2.74,2.74Z"/>
    <path class="cls-1" d="M86.52,59.91c-1.51,0-2.74-1.23-2.74-2.74v-5.49c0-1.51,1.23-2.74,2.74-2.74s2.74,1.23,2.74,2.74v5.49c0,1.51-1.23,2.74-2.74,2.74Z"/>
    <path class="cls-1" d="M93.83,57.77c-.18,0-.36-.02-.53-.05-.17-.04-.35-.09-.51-.15-.17-.07-.33-.15-.47-.25-.15-.1-.29-.21-.42-.34-.13-.13-.24-.27-.34-.42-.1-.15-.18-.31-.25-.47-.07-.17-.12-.34-.16-.51-.04-.18-.05-.36-.05-.53s.02-.36.05-.53c.04-.18.09-.35.16-.51.07-.17.15-.33.25-.47.1-.15.22-.29.34-.42.13-.13.26-.24.42-.34.15-.1.31-.18.47-.25.16-.07.34-.12.51-.16.35-.07.71-.07,1.07,0,.17.04.35.09.51.16.16.07.32.15.47.25.15.1.29.22.42.34.13.13.24.26.34.42.1.15.18.31.25.47.07.16.12.33.15.51.04.17.05.35.05.53s-.02.36-.05.53c-.04.17-.09.34-.15.51-.07.16-.15.32-.25.47-.1.15-.21.29-.34.42-.13.13-.27.24-.42.34-.15.1-.31.18-.47.25-.16.07-.34.12-.51.15-.18.04-.36.05-.53.05Z"/>
    <path class="cls-1" d="M78.37,48.62c-.18,0-.36-.02-.53-.05-.18-.04-.35-.09-.51-.16-.17-.07-.33-.15-.47-.25-.15-.1-.29-.22-.42-.34-.51-.51-.8-1.21-.8-1.94,0-.18.02-.36.05-.53.04-.17.09-.35.16-.51.07-.16.15-.33.25-.47s.22-.29.34-.42c.13-.13.26-.24.42-.34.15-.1.31-.18.47-.25.16-.07.33-.12.51-.15.35-.07.71-.07,1.07,0,.17.04.35.09.51.15.16.07.33.15.47.25.15.1.29.21.42.34.13.13.24.27.34.42.1.15.18.31.25.47.07.16.12.34.15.51.04.18.05.36.05.53,0,.72-.29,1.43-.8,1.94-.13.13-.27.24-.42.34-.15.1-.31.18-.47.25-.16.07-.34.12-.51.16-.18.04-.36.05-.53.05Z"/>
    <path class="cls-1" d="M70.31,43.51c-.18,0-.36-.02-.53-.05-.17-.04-.34-.09-.51-.16-.16-.07-.32-.15-.47-.25-.15-.1-.29-.21-.42-.34-.13-.13-.24-.26-.34-.42-.1-.15-.18-.31-.25-.47-.07-.16-.12-.33-.16-.51-.04-.17-.05-.35-.05-.53s.02-.36.05-.53c.04-.17.09-.35.16-.51.07-.16.15-.32.25-.47.1-.15.21-.29.34-.42.13-.13.27-.24.42-.34.15-.1.31-.18.47-.25.17-.07.34-.12.51-.15.35-.07.72-.07,1.07,0,.17.04.34.09.51.15.16.07.32.15.47.25.15.1.29.21.42.34.51.51.8,1.22.8,1.94,0,.18-.02.36-.05.53-.04.18-.09.35-.16.51-.07.17-.15.33-.25.47-.1.15-.21.29-.34.42-.51.51-1.21.8-1.94.8Z"/>
    <path class="cls-1" d="M62.25,33.52c-.18,0-.36-.02-.53-.05-.17-.03-.35-.09-.51-.15-.16-.07-.33-.15-.47-.25-.15-.1-.29-.22-.42-.34-.13-.13-.24-.27-.34-.42-.1-.15-.18-.31-.25-.47-.07-.16-.12-.34-.15-.51-.04-.18-.05-.36-.05-.53s.02-.36.05-.53c.04-.17.09-.35.15-.51.07-.16.15-.33.25-.47.1-.15.22-.29.34-.42.13-.13.27-.24.42-.34.15-.1.31-.18.47-.25.16-.07.34-.12.51-.15.35-.07.72-.07,1.07,0,.17.04.35.09.51.15.16.07.33.15.47.25.15.1.29.22.42.34.13.13.24.27.34.42.1.15.18.31.25.47.07.16.12.34.16.51.04.18.05.36.05.53s-.02.36-.05.53c-.04.17-.09.35-.16.51-.07.16-.15.33-.25.47-.1.15-.22.29-.34.42-.13.13-.27.24-.42.34-.15.1-.31.18-.47.25-.16.07-.34.12-.51.15-.18.04-.36.05-.53.05Z"/>
    <path class="cls-1" d="M44.5,73.14c-1.51,0-2.74-1.23-2.74-2.74V31.11c0-1.51,1.23-2.74,2.74-2.74s2.74,1.23,2.74,2.74v39.29c0,1.51-1.23,2.74-2.74,2.74Z"/>
    <path class="cls-1" d="M36.44,70.49c-1.51,0-2.74-1.23-2.74-2.74v-24.47c0-1.51,1.23-2.74,2.74-2.74s2.74,1.23,2.74,2.74v24.47c0,1.51-1.23,2.74-2.74,2.74Z"/>
    <path class="cls-1" d="M28.38,65.39c-1.51,0-2.74-1.23-2.74-2.74v-19.37c0-1.51,1.23-2.74,2.74-2.74s2.74,1.23,2.74,2.74v19.37c0,1.51-1.23,2.74-2.74,2.74Z"/>
    <path class="cls-1" d="M20.23,59.58c-1.51,0-2.74-1.23-2.74-2.74v-5.49c0-1.51,1.23-2.74,2.74-2.74s2.74,1.23,2.74,2.74v5.49c0,1.51-1.23,2.74-2.74,2.74Z"/>
    <path class="cls-1" d="M12.92,56.24c-.18,0-.36-.02-.53-.05-.17-.04-.34-.09-.51-.16-.16-.07-.32-.15-.47-.25-.15-.1-.29-.22-.42-.34-.13-.13-.24-.26-.34-.42-.1-.15-.18-.31-.25-.47-.07-.16-.12-.34-.16-.51-.04-.18-.05-.35-.05-.53s.02-.36.05-.53c.04-.17.09-.35.16-.51.07-.16.15-.33.25-.47s.21-.29.34-.42c.13-.13.27-.24.42-.34.15-.1.31-.18.47-.25.17-.07.34-.12.51-.15.89-.18,1.84.11,2.47.75.13.13.24.27.34.42s.18.31.25.47c.07.16.12.34.16.51.04.18.05.36.05.53s-.02.36-.05.53c-.04.17-.09.35-.16.51-.07.16-.15.33-.25.47-.1.15-.21.29-.34.42-.51.51-1.22.8-1.94.8Z"/>
    <path class="cls-1" d="M28.37,65.39c-.18,0-.36-.02-.53-.05-.17-.04-.34-.09-.51-.15-.16-.07-.32-.15-.47-.25-.15-.1-.29-.21-.42-.34-.13-.13-.24-.27-.34-.42s-.18-.31-.25-.47-.12-.34-.16-.51c-.04-.18-.05-.36-.05-.53s.02-.36.05-.53c.04-.17.09-.35.16-.51.07-.17.15-.33.25-.47.1-.15.21-.29.34-.42.13-.13.26-.24.42-.34.15-.1.31-.18.47-.25.17-.07.34-.12.51-.16.35-.07.72-.07,1.07,0,.17.04.34.09.51.16.16.07.32.15.47.25.15.1.29.21.42.34.13.13.24.26.34.42.1.15.18.31.25.47.07.16.12.34.16.51s.05.35.05.53-.02.36-.05.53c-.04.17-.09.35-.16.51-.07.16-.15.33-.25.47s-.21.29-.34.42c-.13.13-.27.24-.42.34-.15.1-.31.18-.47.25-.17.07-.34.12-.51.15-.18.04-.36.05-.54.05Z"/>
    <path class="cls-1" d="M36.44,39.23c-.18,0-.36-.02-.53-.05-.17-.04-.35-.09-.51-.15-.17-.07-.33-.15-.47-.25-.15-.1-.29-.21-.42-.34-.13-.13-.24-.27-.34-.42-.1-.15-.18-.31-.25-.47-.07-.17-.12-.34-.15-.51-.04-.18-.05-.36-.05-.53s.02-.36.05-.54c.04-.17.09-.34.15-.51.07-.16.15-.32.25-.47.1-.15.22-.29.34-.42.13-.13.27-.24.42-.34.15-.1.31-.18.47-.25.16-.07.34-.12.51-.16.35-.07.71-.07,1.07,0,.17.04.35.09.51.16.16.07.33.15.47.25.15.1.29.21.42.34.13.13.24.26.34.42.1.15.18.31.25.47.07.17.12.34.15.51.04.18.05.36.05.54s-.02.36-.05.53c-.04.17-.09.34-.15.51-.07.16-.15.32-.25.47-.1.15-.22.29-.34.42-.13.13-.27.24-.42.34-.15.1-.31.18-.47.25-.16.07-.34.12-.51.15-.18.04-.36.05-.53.05Z"/>
    <path class="cls-1" d="M44.5,80.49c-.18,0-.36-.02-.53-.05-.17-.04-.35-.09-.51-.15-.16-.07-.32-.15-.47-.25-.15-.1-.29-.22-.42-.34-.13-.13-.24-.27-.34-.42s-.18-.31-.25-.47c-.07-.16-.12-.34-.15-.51-.04-.18-.05-.36-.05-.53s.02-.36.05-.53c.04-.18.09-.35.15-.51.07-.17.15-.33.25-.47.1-.15.22-.29.34-.42.64-.64,1.58-.93,2.47-.75.18.04.35.09.51.16.17.07.33.15.47.25.15.1.29.22.42.34.13.13.24.26.34.42.1.15.18.31.25.47.07.16.12.33.16.51.04.18.05.36.05.53s-.02.36-.05.53c-.04.17-.09.35-.16.51-.07.16-.15.33-.25.47s-.22.29-.34.42c-.51.51-1.21.8-1.94.8Z"/>
  </g>
</svg>